<svg xmlns="http://www.w3.org/2000/svg" viewBox="0 0 116.38 111">
    <defs>
        <style>
            .cls-1 {
                fill: none;
                stroke: #48ACF0;
                stroke-linecap: round;
                stroke-linejoin: round;
                stroke-width: 3px;
            }
        </style>
    </defs>
    <title>contact</title>
    <g id="Layer_2" data-name="Layer 2">
        <g id="Layer_1-2" data-name="Layer 1">
            <path class="cls-1" d="M25.66,36.58a2.82,2.82,0,1,1-2.82-2.82A2.82,2.82,0,0,1,25.66,36.58Z" />
            <path class="cls-1" d="M39,36.58a2.82,2.82,0,1,1-2.82-2.82A2.82,2.82,0,0,1,39,36.58Z" />
            <path class="cls-1" d="M52.34,36.58a2.82,2.82,0,1,1-2.82-2.82A2.82,2.82,0,0,1,52.34,36.58Z" />
            <circle class="cls-1" cx="93.54" cy="74.42" r="2.82" />
            <circle class="cls-1" cx="80.2" cy="74.42" r="2.82" />
            <circle class="cls-1" cx="66.86" cy="74.42" r="2.82" />
            <path class="cls-1" d="M104.49,61.48a26.73,26.73,0,0,1,2,4.51" />
            <path class="cls-1" d="M75.2,47.62a27.49,27.49,0,0,1,25.68,8.73" />
            <path class="cls-1" d="M73.75,40a34.66,34.66,0,0,1,34.61,54.28l5.14,15.27-16.29-5.26A34.68,34.68,0,1,1,73.75,40Z" />
            <path class="cls-1" d="M70.55,40.72A34.67,34.67,0,1,0,8,56.39L2.88,71.66l16.3-5.26a34.62,34.62,0,0,0,26.64,3.08" />
        </g>
    </g>
</svg>