<svg xmlns="http://www.w3.org/2000/svg" viewBox="0 0 93.46 101.64">
    <defs>
        <style>
            .cls-1 {
                fill: none;
                stroke: #48ACF0;
                stroke-linecap: round;
                stroke-linejoin: round;
                stroke-width: 3px;
            }
        </style>
    </defs>
    <title>personal</title>
    <g id="Layer_2" data-name="Layer 2">
        <g id="Layer_1-2" data-name="Layer 1">
            <path class="cls-1" d="M67.13,33.89a27.88,27.88,0,0,0,1.26-8.3c0-13.78-9.93-24.09-22.17-24.09S24.05,11.81,24.05,25.59a27.88,27.88,0,0,0,1.26,8.3,6.49,6.49,0,0,0-2.85,5.4A6.41,6.41,0,0,0,27,45.5C30.22,55,37.61,61.62,46.22,61.62S62.22,55,65.39,45.5A6.41,6.41,0,0,0,70,39.29,6.49,6.49,0,0,0,67.13,33.89Z" />
            <path class="cls-1" d="M63.88,25a7.34,7.34,0,0,0-6.5-5.32,22.15,22.15,0,0,0-3.37.72l3.19-5s-2.74-.06-7.36,4.1c-9.61,8.63-20.19,1.81-20.19,1.81" />
            <path class="cls-1" d="M40.73,35.13a5.12,5.12,0,0,0-5.4,0" />
            <path class="cls-1" d="M57.16,35.13a5.1,5.1,0,0,0-5.39,0" />
            <polyline class="cls-1" points="46.52 72.53 54.66 81.71 65.62 69.78 60.92 61.72" />
            <path class="cls-1" d="M27.51,69.45,7,77.9A11.53,11.53,0,0,0,1.5,87.69v12.45" />
            <path class="cls-1" d="M65.47,69.45l21,8.84c3.9,2,5.46,5.8,5.46,9.79v12.06" />
            <polyline class="cls-1" points="46.52 72.53 38.37 81.71 27.42 69.78 32.12 61.72" />
            <line class="cls-1" x1="60.92" y1="61.72" x2="46.52" y2="72.53" />
            <line class="cls-1" x1="32.12" y1="61.72" x2="46.52" y2="72.53" />
        </g>
    </g>
</svg>