<svg xmlns="http://www.w3.org/2000/svg" viewBox="0 0 112.03 112.61"><defs><style>.cls-1{fill:none;stroke:#008cff;stroke-linecap:round;stroke-linejoin:round;stroke-width:3px;}</style></defs><title>work</title><g id="Layer_2" data-name="Layer 2"><g id="Layer_1-2" data-name="Layer 1"><line class="cls-1" x1="24.91" y1="68" x2="24.91" y2="66.17"/><rect class="cls-1" x="1.5" y="36.61" width="109.03" height="74.5"/><polyline class="cls-1" points="18.41 73.06 18.41 81.61 24.91 86.61 31.41 81.61 31.41 73.06"/><rect class="cls-1" x="15.58" y="61.11" width="18.65" height="11.95"/><line class="cls-1" x1="18.41" y1="36.61" x2="18.41" y2="61.11"/><line class="cls-1" x1="31.41" y1="61.11" x2="31.41" y2="36.61"/><line class="cls-1" x1="87.58" y1="68" x2="87.58" y2="66.17"/><polyline class="cls-1" points="81.08 73.06 81.08 81.61 87.58 86.61 94.07 81.61 94.07 73.06"/><rect class="cls-1" x="78.25" y="61.11" width="18.65" height="11.95"/><rect class="cls-1" x="46.92" y="62.68" width="18.65" height="8.82"/><line class="cls-1" x1="81.08" y1="36.61" x2="81.08" y2="61.11"/><line class="cls-1" x1="94.07" y1="61.11" x2="94.07" y2="36.61"/><line class="cls-1" x1="15.58" y1="67" x2="1.5" y2="67"/><line class="cls-1" x1="110.53" y1="67" x2="96.9" y2="67"/><line class="cls-1" x1="78.25" y1="67" x2="65.57" y2="67"/><line class="cls-1" x1="46.92" y1="67" x2="34.23" y2="67"/><line class="cls-1" x1="110.53" y1="104.08" x2="1.5" y2="104.08"/><path class="cls-1" d="M43.92,17.3V27.57a3.15,3.15,0,0,0,2.42,3.12A3,3,0,0,0,50,27.76v.09a3.05,3.05,0,1,0,6.1,0v-.12a3,3,0,0,0,6.09,0v.09a3.05,3.05,0,1,0,6.1,0V13.79a20.21,20.21,0,0,0-.8-5.63L65.57,1.5"/><path class="cls-1" d="M42.84,23.38h0a3.94,3.94,0,0,1-3.93-3.93v-4c0-4.36,1.69-6.36,3.56-7.28a7.14,7.14,0,0,0,4.17-6.36V1.5"/><polyline class="cls-1" points="68.3 27.08 72.12 27.08 72.12 36.61"/><polyline class="cls-1" points="39.91 36.61 39.91 27.08 43.92 27.08"/><line class="cls-1" x1="62.2" y1="24.86" x2="62.2" y2="27.7"/><line class="cls-1" x1="56.11" y1="24.86" x2="56.11" y2="27.7"/><line class="cls-1" x1="50.01" y1="24.86" x2="50.01" y2="27.7"/></g></g></svg>